<svg xmlns="http://www.w3.org/2000/svg" width="236.39" height="273.55" viewBox="0 0 236.39 273.55">
  <g id="Group_1" data-name="Group 1" transform="translate(-499.84 -381.64)">
    <g id="head_Shaved_2" data-name="head/Shaved 2" transform="translate(551.5 385)">
      <path id="_Skin" data-name="âœ‹ Skin" d="M73.785,21.345c-1.585-5.711-1.359-6.328-3.721-11.783C62.228-6.286,9.87-.98,4.526,14.839c-2.9,8.582-2.218,20.668-2.973,28.109Q1.207,48.867.861,54.785.739,56.828.614,58.872.37,62.85.145,66.829c-.984,8.172,3.123,9,10.167,8.762a28.971,28.971,0,0,0,8.6,11.3c-.9,2.446,2.362,3.713,4.121,4.691,9.572,5.344,21.329,8.6,31.931,5.6,3.115-.883,15.979-3.941,19.935-13.408,1.942-4.649,5.891-28.724.684-50.381Z" transform="translate(13.215 12.658)" fill="#d08b5b"/>
      <path id="_Ink" data-name="ðŸ– Ink" d="M52.617,115.858a37.132,37.132,0,0,1-7.6-.79,25.013,25.013,0,0,1-4.173-1.268,15.769,15.769,0,0,1-3.9-2.417.954.954,0,0,1-.3-1.006,1.261,1.261,0,0,1,.278-.539.918.918,0,0,1,.5-.3l.547-.112c.353-.073.717-.149,1.077-.214a.672.672,0,0,1,.122-.011.881.881,0,0,1,.665.337.647.647,0,0,1,.149.539l1.049.27c.288.074.667.172,1.047.275l.522.143a42.343,42.343,0,0,0,4.527,1.013,31.71,31.71,0,0,0,5.072.4,35.144,35.144,0,0,0,4.369-.276,32.361,32.361,0,0,0,7.769-1.939,24.424,24.424,0,0,0,6.9-4.028,19.9,19.9,0,0,0,4.87-6.012,18.769,18.769,0,0,0,1.622-4.632,48.542,48.542,0,0,0,.761-4.867,109.176,109.176,0,0,0,.695-14.162c-.049-4.277-.307-8.91-.789-14.163-.451-4.928-1.082-9.87-1.64-14.055-.09-.67-.183-1.352-.273-2.012l0-.013v0c-.231-1.7-.471-3.449-.675-5.176a5.151,5.151,0,0,1-1.781-.862,1.787,1.787,0,0,1-.677-.93,2.35,2.35,0,0,1-1.45-.911l-.048-.068a8.9,8.9,0,0,0-4.3-2.856c-.837-.315-1.7-.6-2.536-.874l-.384-.127c-.281-.093-.572-.2-.853-.305a10.5,10.5,0,0,0-2.308-.662,5.2,5.2,0,0,0-.616-.034c-.408,0-.825.039-1.227.077h0c-.405.038-.824.077-1.236.077a5.364,5.364,0,0,1-.571-.028,4.63,4.63,0,0,1-2.889-1.317,4.239,4.239,0,0,1-.715-.943,15.907,15.907,0,0,1-3.337.313c-1.127,0-2.286-.08-3.407-.158h-.018c-1.129-.078-2.3-.159-3.451-.159-.464,0-.892.013-1.309.039a13.382,13.382,0,0,0-3.44.844,11.958,11.958,0,0,1-3.831.853h-.1a2.961,2.961,0,0,1-1.879-.69,47.972,47.972,0,0,0-6.282,1.816l-.008,0-.9.3c-1.305.438-2.6.972-3.858,1.488-.916.377-1.862.766-2.8,1.115,0,0,0,0,0,0a1.7,1.7,0,0,1-.649.913,1.809,1.809,0,0,1-1.038.308,2.263,2.263,0,0,1-.4-.036,19.234,19.234,0,0,1-4.563-1.639,21.711,21.711,0,0,0-3.957-1.508c-.155.564-.314,1.134-.468,1.686-.653,2.34-1.328,4.759-1.81,7.2A88.807,88.807,0,0,0,5.4,52.97c-.274,3.006-.416,6.147-.423,9.336,0,1.364.026,2.833.092,4.762.009.279.027.568.046.875a8.621,8.621,0,0,1-.23,3.411l-.043.109h0a.311.311,0,0,1-.286.211.235.235,0,0,1-.182-.086A7.587,7.587,0,0,1,3.091,68c-.028-.155-.055-.3-.083-.449-.265-1.39-.467-2.881-.656-4.834-.156-1.613-.253-3.251-.289-4.87s-.012-3.251.071-4.88A80,80,0,0,1,3.209,43.2a57.068,57.068,0,0,1,2.481-9.508l-.06,0c-.194,0-.474-.094-.7-.545a2.736,2.736,0,0,1-.26-.954,14.56,14.56,0,0,1,.283-3.462l.2-1.173A19.867,19.867,0,0,1,5.918,24.3a27.586,27.586,0,0,1,3.828-7.219,28.363,28.363,0,0,1,5.84-5.886A29.311,29.311,0,0,1,22.86,7.2a1.421,1.421,0,0,1,.5-.1,1.254,1.254,0,0,1,.408.068A70.534,70.534,0,0,1,38.815,1.245C40.248.858,41.946.422,43.678.113A6.921,6.921,0,0,1,44.873,0a2.977,2.977,0,0,1,2.789,1.406,2.865,2.865,0,0,1,.356.941,32.966,32.966,0,0,1,7.218-.787,36.281,36.281,0,0,1,5.159.375,1.5,1.5,0,0,1,1.138.88,2.087,2.087,0,0,1-.015,1.877c-.053.09-.11.187-.172.282a21.657,21.657,0,0,1,3.868.674,2.139,2.139,0,0,1,1.274,1.111,1.544,1.544,0,0,1,.083,1.284c-.034.08-.071.162-.106.241h0l-.006.012a13.088,13.088,0,0,1,2.934.851A12.534,12.534,0,0,1,72.079,10.7a2.478,2.478,0,0,1,.542.567,18.13,18.13,0,0,1,2.021-.113,18.935,18.935,0,0,1,8.97,2.281,2.116,2.116,0,0,1,.993,1.379,1.877,1.877,0,0,1-.236,1.509c-.205.293-.412.56-.632.817A7.935,7.935,0,0,1,85.77,18.23a6.317,6.317,0,0,1,1.591,1.749,6.72,6.72,0,0,1,.911,2.556,6.3,6.3,0,0,1-.181,2.672,4.8,4.8,0,0,1,1.239,4.4,4.344,4.344,0,0,1-2.466,3.058,2.169,2.169,0,0,1-.5,2.15A8.478,8.478,0,0,1,83.415,36.8a1.875,1.875,0,0,1-.217.851,6.067,6.067,0,0,1-2.205,2.316,7.061,7.061,0,0,1-3.09,1.035c.739,3.1,1.35,6.274,1.913,9.257.528,2.8.988,5.581,1.367,8.271.4,2.815.72,5.617.957,8.328l.059.688a138.271,138.271,0,0,1,.549,14.336c-.049,2.493-.189,4.909-.418,7.18a69.763,69.763,0,0,1-1.066,7.06,21.191,21.191,0,0,1-1.361,4.252,22.345,22.345,0,0,1-2.174,3.84,24.1,24.1,0,0,1-2.871,3.364,25.846,25.846,0,0,1-3.451,2.824,30.042,30.042,0,0,1-8.213,3.895,36.3,36.3,0,0,1-8.974,1.521C53.691,115.846,53.152,115.858,52.617,115.858Zm-26.962-8.2a4.585,4.585,0,0,1-2.211-.726,18.007,18.007,0,0,1-1.933-1.333l-.183-.139a26.217,26.217,0,0,1-4.345-3.991,21.665,21.665,0,0,1-3.254-5.033,12.127,12.127,0,0,1-.968-3.178,8.688,8.688,0,0,1-3.434.688A9.242,9.242,0,0,1,4.162,92.4,8.812,8.812,0,0,1,.87,87.978,16.492,16.492,0,0,1,0,82.437v-.22a19.325,19.325,0,0,1,.212-2.775A14.325,14.325,0,0,1,.9,76.692a8.32,8.32,0,0,1,3.324-4.359A6.556,6.556,0,0,1,5.966,71.6a7.98,7.98,0,0,1,2.06-.279,5.442,5.442,0,0,1,2.4.5,3.248,3.248,0,0,1,1.613,1.69.122.122,0,0,1-.012.118.182.182,0,0,1-.146.078.137.137,0,0,1-.035,0l-.294-.074a7.29,7.29,0,0,0-1.766-.27,3.969,3.969,0,0,0-1.5.293A6.378,6.378,0,0,0,5.6,75.574a7.053,7.053,0,0,0-.946,1.681,9.4,9.4,0,0,0-.516,1.861A16.793,16.793,0,0,0,3.98,82.99l.007.122a11.184,11.184,0,0,0,.675,3.417,5.622,5.622,0,0,0,.852,1.492,4.128,4.128,0,0,0,1.34,1.087,6.145,6.145,0,0,0,2.827.508l.461,0h.3a12.828,12.828,0,0,1,3.92.556,1.14,1.14,0,0,1,.747.824.958.958,0,0,1-.283.929,6.215,6.215,0,0,1-.627.517c.789.84,1.383,1.5,1.926,2.153,1.063,1.269,2.194,2.5,3.362,3.646a30.409,30.409,0,0,0,3.642,3.127c.5.356,1.046.679,1.573.991a12.7,12.7,0,0,1,2.611,1.856,1.744,1.744,0,0,1,.528,1.317,2.258,2.258,0,0,1-.528,1.324A2.053,2.053,0,0,1,25.655,107.658ZM14.854,83.5a3.217,3.217,0,0,1-1.867-.641,7.311,7.311,0,0,1-1.082-1.046,7.56,7.56,0,0,0-1.028-1.005,4.419,4.419,0,0,0-2.661-.824,5.07,5.07,0,0,0-2.672.737.093.093,0,0,1-.135-.032.116.116,0,0,1-.008-.112,5.5,5.5,0,0,1,.867-1.284,5.221,5.221,0,0,1,1.153-.951,5.626,5.626,0,0,1,2.928-.794h.122A6.715,6.715,0,0,1,13.757,78.6l.105.062c.234.139.488.27.756.408h0a9.926,9.926,0,0,1,1.259.727,2.736,2.736,0,0,1,.918,1.028,1.685,1.685,0,0,1-.255,1.978A2.324,2.324,0,0,1,14.854,83.5Z" transform="translate(9.855 -3.36)"/>
    </g>
    <g id="face_Calm" data-name="face/Calm" transform="translate(574.5 417)">
      <path id="_Ink-2" data-name="ðŸ– Ink" d="M23.317,41.438a8.428,8.428,0,0,1-4.676-1.385,8.914,8.914,0,0,1-1.934-1.673,7.011,7.011,0,0,1-1.179-1.887,5.358,5.358,0,0,1-.421-2.142.662.662,0,0,1,.157-.422.735.735,0,0,1,.391-.235.754.754,0,0,1,.172-.02.693.693,0,0,1,.285.06.609.609,0,0,1,.3.3c.14.185.325.427.511.661a12.866,12.866,0,0,0,2.122,2.175,6.566,6.566,0,0,0,2.64,1.244,5.645,5.645,0,0,0,1.213.132,5.931,5.931,0,0,0,2.049-.371,6.969,6.969,0,0,0,2.868-2.019,1.539,1.539,0,0,1,1.172-.58H29a1.8,1.8,0,0,1,1.246.553,1.949,1.949,0,0,1,.582,1.271,1.7,1.7,0,0,1-.482,1.249A9.664,9.664,0,0,1,28.313,40a9.83,9.83,0,0,1-2.394,1.059A9.339,9.339,0,0,1,23.317,41.438ZM25.954,29.1h0a7.72,7.72,0,0,1-2.757-.557A13.917,13.917,0,0,1,19.955,26.7a1.248,1.248,0,0,1-.452-.721,1.5,1.5,0,0,1,.064-.809,1.841,1.841,0,0,1,.546-.79,1.327,1.327,0,0,1,.851-.332,1.205,1.205,0,0,1,.658.2l.215.166.007.006a17.55,17.55,0,0,0,2.03,1.414,4.993,4.993,0,0,0,2.432.777,2.623,2.623,0,0,0,1.028-.2,2.872,2.872,0,0,0,.957-.679,2.945,2.945,0,0,0,.557-2.367,4.474,4.474,0,0,0-1.185-2.1,8.64,8.64,0,0,0-1.793-1.45.558.558,0,0,1-.15-.64.836.836,0,0,1,.276-.4.847.847,0,0,1,.529-.175,1.125,1.125,0,0,1,.19.017,6.007,6.007,0,0,1,2.115.765,4.8,4.8,0,0,1,1.422,1.314,5.226,5.226,0,0,1,.908,3.487,5.753,5.753,0,0,1-.465,1.83,5.34,5.34,0,0,1-1.048,1.573A5.006,5.006,0,0,1,25.954,29.1Zm-21.2-8.526a1.058,1.058,0,0,1-.307-.045.624.624,0,0,1-.421-.363,5.167,5.167,0,0,1,.258-3.888,9.109,9.109,0,0,1,1.367-2.246,5.617,5.617,0,0,1,1.468-1.32,4.915,4.915,0,0,1,2.334-.6,4.669,4.669,0,0,1,2.25.582,5.857,5.857,0,0,1,1.555,1.28,16.138,16.138,0,0,1,1.206,1.609c.159.232.323.471.49.7A1.419,1.419,0,0,1,15.2,17.6a1.7,1.7,0,0,1-.965,1,1.845,1.845,0,0,1-.711.146,1.621,1.621,0,0,1-.634-.126,1.707,1.707,0,0,1-.915-.968,6.608,6.608,0,0,0-.71-1.293,3.881,3.881,0,0,0-1.034-1.026,1.86,1.86,0,0,0-1.87-.143,6.117,6.117,0,0,0-2.176,2.174A4.267,4.267,0,0,0,5.465,19.9a.577.577,0,0,1-.186.484.724.724,0,0,1-.4.18A.949.949,0,0,1,4.756,20.573Zm32.1-3.132a1.381,1.381,0,0,1-.4-.064A1.509,1.509,0,0,1,35.835,17a1.244,1.244,0,0,1-.347-.629,2.574,2.574,0,0,0-.9-1.5,1.8,1.8,0,0,0-1.439-.379,2.763,2.763,0,0,0-1.549.93,3.407,3.407,0,0,0-.325.475l-.01.016a3.465,3.465,0,0,1-.643.846.626.626,0,0,1-.4.15.594.594,0,0,1-.177-.028,2.529,2.529,0,0,1-.571-.8,1.577,1.577,0,0,1-.114-.691,2.739,2.739,0,0,1,.5-1.386,5.383,5.383,0,0,1,1.388-1.359,4.62,4.62,0,0,1,1.535-.724,4.14,4.14,0,0,1,.87-.093,4.434,4.434,0,0,1,2.553.832A4.856,4.856,0,0,1,38.191,15.7a1.619,1.619,0,0,1-.081.9,1.258,1.258,0,0,1-.586.653A1.392,1.392,0,0,1,36.858,17.441ZM.76,11.523a.369.369,0,0,1-.048,0,.449.449,0,0,1-.234-.114A1.705,1.705,0,0,1,0,10,6.077,6.077,0,0,1,.617,7.645,15.075,15.075,0,0,1,1.8,5.655a10.468,10.468,0,0,1,1.52-1.736,13.155,13.155,0,0,1,4.256-2.6,9.138,9.138,0,0,1,3.034-.67c.063,0,.126,0,.188,0a3.64,3.64,0,0,1,1.129.215,2.968,2.968,0,0,1,1.005.626,1.87,1.87,0,0,1,.557,1.365,1.95,1.95,0,0,1-.56,1.4,2.878,2.878,0,0,1-1.19.7,6.909,6.909,0,0,1-1.3.232,11.8,11.8,0,0,0-1.266.187A11.881,11.881,0,0,0,6.119,6.493,11.314,11.314,0,0,0,3.254,8.527c-.187.2-.365.413-.537.618l0,.006c-.16.191-.311.371-.472.547-.179.2-.344.393-.54.631a2.683,2.683,0,0,0-.152.27c-.039.082-.077.157-.115.23-.071.135-.14.253-.2.351-.127.214-.193.265-.245.289A.549.549,0,0,1,.76,11.523Zm37.907-.487a.433.433,0,0,1-.071-.006.427.427,0,0,1-.218-.106.411.411,0,0,1-.123-.212A7.968,7.968,0,0,0,37.1,7.9a6.06,6.06,0,0,0-2.309-1.972,14.8,14.8,0,0,0-3.228-1.087c-.311-.074-.645-.123-.969-.17l-.015,0a8.168,8.168,0,0,1-1.535-.329,2.715,2.715,0,0,1-1.261-.852,2.359,2.359,0,0,1-.436-.852,2.176,2.176,0,0,1-.053-.917A1.882,1.882,0,0,1,28.316.326,3.067,3.067,0,0,1,29.741,0a9.317,9.317,0,0,1,3.424.957l.075.032h0l.25.107a11.238,11.238,0,0,1,3.919,2.62,8.488,8.488,0,0,1,2.014,3.729,4.482,4.482,0,0,1-.407,3.393.4.4,0,0,1-.184.162A.423.423,0,0,1,38.667,11.036Z" transform="translate(11.959 12.214)"/>
    </g>
    <g id="body_Macbook" data-name="body/Macbook" transform="translate(499.84 481.836)">
      <path id="_Skin-2" data-name="âœ‹ Skin" d="M229.191,55.1l-10.111.992c-16.141,1.233-32.275,3.809-48.292,5.354a1.036,1.036,0,0,0-1.653-.091c-1.6-.14-3.39-1.362-4.837-.091-.047-.007-.094-.014-.142-.019a101.555,101.555,0,0,1-6.089-15.509c-1.1-3.249-2.589-6.394-5.333-8.575-4.684-3.251-15.415-9.844-20.914-9.567a4.082,4.082,0,0,0-1.3-2.655c1.661-2.832-4.981-4.68-5.449-4.351.3-9.461-4.15-17.678-13.964-19.562C102.311-.8,89.806-1.11,85.078,8.078c-.52-.059-5.833-.086-6.347-.029-.8-1.012-9.577,8.58-5.979,11.919C40.59,34.2,22.3,32.5,13.4,72.5c-1.2,3.757-1.291,7.869-2.562,11.543-4.521,10.557-8.188,21.8-9.1,33.286-2.2.565-2.458,4.451.1,5.013a5.971,5.971,0,0,1,2.5,1.065c-.556,9.414,1.721,30.918,3.155,30.852,2.925,9.309,15.972,11.936,25.21,8.665-1.592,3,0,4.879,0,6.48,33.238,1.257,69.579.533,102.807,2.258,4.25-.06,8.721,1.044,12.913.408,2.557-.613,2.561-4.633-.032-5.13l11.332-2.461c-.253-.1,4.671-3.371,8.393-9.492,3.464-6.847,1.107-15.112,2.676-22.559,12.26-1,24.722-1.431,36.848-3.508,1.653,4.947,8.81-.969,11.085-3.349l-.008-.011A2.763,2.763,0,0,0,220.726,123a3.354,3.354,0,0,0,.194-3.724c3.394-19.582,8.567-39.575,10.437-59.341a4.185,4.185,0,0,0,1.811-.883l-.043-.043a2.247,2.247,0,0,0-.423-3.565C231.5,54.763,230.5,54.975,229.191,55.1Z" transform="translate(1.416 0)" fill="#d08b5b"/>
      <path id="_Top" data-name="ðŸ‘• Top" d="M141.384,166.762c-4.463,0-11.015-.437-19.471-1.3-3.722-.379-11.379-.736-22.76-1.062-9.639-.276-20.068-.478-27.683-.626h-.023c-3.973-.077-7.111-.138-8.972-.187l-.511-.014c-5.272-.152-10.585-.229-15.792-.229s-10.455.077-15.6.229V157.2l29.5-14.633L86.51,127.7l12.745-5.9,2.6,1.652,21.241,6.844,12.981,1.652,10.621-1.652V148.47l2.124,16.993c-.235.431-.979.758-2.213.974A32.361,32.361,0,0,1,141.384,166.762ZM40.264,119.106H34.781L2.875,111.4,0,110.452a79.441,79.441,0,0,1,1.188-8.49c.524-2.7,1.206-5.514,2.025-8.358A138.052,138.052,0,0,1,9.078,77.446a37.209,37.209,0,0,0,1.339-5.937A40.613,40.613,0,0,1,11.64,65.9,83.825,83.825,0,0,1,18.233,46.27c.643-1.271,1.327-2.5,2.035-3.644.694-1.125,1.433-2.211,2.2-3.228a38.251,38.251,0,0,1,4.89-5.385A48.444,48.444,0,0,1,39.226,26.27c4.441-2.147,9.263-3.975,14.846-6.092h0c5.055-1.916,10.784-4.089,16.918-6.8a2.752,2.752,0,0,1-.859-1.992,6.411,6.411,0,0,1,.52-2.531,18.6,18.6,0,0,1,3.228-5.068A15.43,15.43,0,0,1,75.62,2.05,2.453,2.453,0,0,1,76.8,1.382a.211.211,0,0,1,.176.074l.05,0,.109-.006.14,0c.368-.011,1.037-.017,1.883-.017,1.717,0,3.849.025,4.164.06A13.75,13.75,0,0,1,84.2,0l1.951,1.457-4.259,7,20.749,16.783V38.643l6.569,6.213,3.755-6.213,5.291-7.036,3.76-11.405-1.28-7.514,2.574-.243c.012.512.01,1.035-.006,1.554a.406.406,0,0,1,.212-.038,9.795,9.795,0,0,1,4.18,1.545,3.584,3.584,0,0,1,1.085,1.1,1.637,1.637,0,0,1-.028,1.743,4.074,4.074,0,0,1,1.3,2.655c.113-.006.229-.008.344-.008a15.46,15.46,0,0,1,4.928,1.048,47.115,47.115,0,0,1,5.733,2.545c1.762.909,3.628,1.966,5.545,3.142,1.936,1.188,3.441,2.2,4.363,2.84a13.543,13.543,0,0,1,3.282,3.887,25.467,25.467,0,0,1,2.051,4.688l.26.793.269.814.27.813a89.606,89.606,0,0,0,5.29,13.09c.035,0,.071.009.1.013h.006l.032,0a2.258,2.258,0,0,1,1.554-.572,6.93,6.93,0,0,1,1.806.341,8.374,8.374,0,0,0,1.477.322,1.276,1.276,0,0,1,.861-.367.89.89,0,0,1,.763.414l.028.044L149.116,58.78l-13.137,46.081-11.44-9.286-6.141.913-16.217,5.849-18.861,4.9Z" transform="translate(3.176 6.592)" fill="#171717"/>
      <path id="_Computer" data-name="ðŸ’» Computer" d="M30.176,80.492h0c1.34-5.07,2.374-9.241,3.255-13.125.332-1.463.664-2.949.985-4.387v0c.768-3.439,1.563-7,2.411-10.48,2.373-9.742,5.1-19.717,8.119-29.65.619-2.04,1.264-4.113,1.916-6.161l.458-1.432.353-1.141a13.588,13.588,0,0,1,1.015-2.537,5.046,5.046,0,0,1,1.806-1.952,9.055,9.055,0,0,1,2.485-.967c.889-.222,1.816-.367,2.712-.508.472-.074.917-.144,1.353-.224l1.438-.27c2.141-.4,4.316-.789,6.463-1.159C75.227,4.729,85.7,3.292,96.082,2.226c5.374-.552,10.857-1.016,16.3-1.381,5.389-.361,10.885-.634,16.334-.811L129.8,0l-.593,3.305c-.14.046-.284.085-.43.117-.181,1.911-.4,3.9-.653,5.917l-3.677,20.5c-.654,3.738-1.265,7.432-1.834,10.895l-.792,3.9-.49,2.427c-1,4.957-2.052,10.291-2.99,15.7a2.577,2.577,0,0,1,.319.632l-.069.294-.048.2-.049.193a16.16,16.16,0,0,1-.651,2.01,9.307,9.307,0,0,1-.957,1.814,6.239,6.239,0,0,1-1.371,1.451,5.612,5.612,0,0,1-1.893.923,28.266,28.266,0,0,1-5.123.742c-.585.049-1.189.1-1.772.16l-.252.027L66.667,75.684c-4.189.471-8.638.983-14.424,1.661l-4.167.489c-1,.116-2.025.23-3.014.34H45.05c-4.728.527-9.618,1.072-14.348,2.078a1.286,1.286,0,0,0-.526.239ZM89.192,28.123a.869.869,0,0,0-.868,1.052l.028.143a4.486,4.486,0,0,1-.278,2.525,6.409,6.409,0,0,1-1.449,2.127,8.153,8.153,0,0,1-1.287.962,4.491,4.491,0,0,0-2.028,2.04,1.817,1.817,0,0,0-.025,1.175,2.238,2.238,0,0,0,.638.966l-.137.068-.134.068-.131.069-.127.07-.124.07a7.3,7.3,0,0,0-1.677,1.278,3.32,3.32,0,0,0-.909,1.637,2.934,2.934,0,0,0,.744,2.409,5.406,5.406,0,0,0,1.482,1.269,7.85,7.85,0,0,0,1.854.775,15.375,15.375,0,0,0,4.143.492c.607,0,1.243-.023,1.944-.069l.2-.014c2.239-.168,6.26-.9,8.04-3.934a3.352,3.352,0,0,0,.473-1.982,3.017,3.017,0,0,0-.843-1.847A4.71,4.71,0,0,0,96,38.087a3.362,3.362,0,0,0-.223-1.581,2.718,2.718,0,0,0-1.092-1.216,3.23,3.23,0,0,0-1.6-.484,5.629,5.629,0,0,0-.8-2.889,22.112,22.112,0,0,0-1.769-2.635l-.3-.4-.128-.174-.124-.171a.949.949,0,0,0-.772-.412ZM29.615,80.231h0a1.542,1.542,0,0,0-.9-.267H28.64a28.43,28.43,0,0,1-7.136-.989,66.719,66.719,0,0,1-6.872-2.269l-.689-.263-1.92-.738c-1.769-.678-3.83-1.453-5.912-2.085L5.3,73.376l-.411-.121a22.09,22.09,0,0,0-4.679-.943L0,72.3l.458-.24a1.084,1.084,0,0,0,.178-.117c.314.023.608.035.9.035a9.743,9.743,0,0,0,1.749-.153,16.418,16.418,0,0,0,4.925-1.74l.685-.371.281-.149.185-.1.184-.093a9.245,9.245,0,0,1,1.48-.608,5.43,5.43,0,0,1,1.577-.239,5.7,5.7,0,0,1,1.185.128,16.641,16.641,0,0,1,4.243,1.754c.329.173.669.352,1,.522l.3.151.2.1.207.1.21.1a10.287,10.287,0,0,0,4.024,1.075A2.648,2.648,0,0,0,26.808,70.4a4.3,4.3,0,0,0-.538-3.469c.042,0,.083-.005.125-.005a6.918,6.918,0,0,1,2.213.662A9.467,9.467,0,0,0,31,68.337l.1.008L29.615,80.231Zm59.2-34.567a15.2,15.2,0,0,1-2.846-.23,6.591,6.591,0,0,1-2.537-.982,2.279,2.279,0,0,1-1.1-1.553,1.867,1.867,0,0,1,.576-1.487c.553-.6,1.125-1.225,1.718-1.83a2.363,2.363,0,0,0,1.037.243,3.743,3.743,0,0,0,1.519-.39.1.1,0,0,0,.058-.12.129.129,0,0,0-.119-.107,3.779,3.779,0,0,1-1.351-.533c-.3-.17-.992-.606-1.047-.973-.073-.488.722-.9,1.248-1.178h0l.161-.085L86.2,36.4l.061-.036A9.006,9.006,0,0,0,87.7,35.291a7.613,7.613,0,0,0,2.279-3.724l.031-.128,1.143,4.28-.02.035a.769.769,0,0,0,.032.77.894.894,0,0,0,.738.443.7.7,0,0,0,.509-.224l.063-.068a.818.818,0,0,1,.6-.27,1.259,1.259,0,0,1,.882.445,1.441,1.441,0,0,1,.413.905,2.6,2.6,0,0,1-.468,1.523,4.056,4.056,0,0,1-1.151,1.1l-.062.041-.164.1a.683.683,0,0,0-.311.791.841.841,0,0,0,.8.59.888.888,0,0,0,.134-.01,3.315,3.315,0,0,0,2.313-1.927,5.231,5.231,0,0,0,.587.12,3.325,3.325,0,0,1,1.128.332,1.329,1.329,0,0,1,.762,1,1.761,1.761,0,0,1-.285,1.074,4.237,4.237,0,0,1-.8.961l-.038.034-.076.066a8.029,8.029,0,0,1-2.923,1.537,13.816,13.816,0,0,1-3.285.528l-.126.006C89.973,45.643,89.4,45.665,88.812,45.665Z" transform="translate(103.989 56.502)" fill="#fff"/>
      <path id="_Ink-3" data-name="ðŸ– Ink" d="M152.02,168.654a.884.884,0,0,1-.656-.291,4.125,4.125,0,0,1-.919-1.626,12.476,12.476,0,0,1-.38-1.844h0v0c-.032-.2-.064-.416-.1-.624-.249-1.455-.474-2.966-.689-4.62-.452-3.477-.7-6.34-.783-9.01-.094-3.075-.058-6.2.108-9.278.081-1.5.185-3.116.393-4.748.1-.751.179-1.381.274-2.015.035-.237.075-.476.121-.731l-2.552.288c-3.737.417-7.724.83-11.767.892h-.022a1.275,1.275,0,0,1-1.038-.515,1.465,1.465,0,0,1-1.3.7H132.7c-5.614-.021-10.83-1.906-15.631-3.94-1.2-.509-2.41-1.046-3.58-1.565l0,0c-1.29-.572-2.624-1.164-3.947-1.72-.972-.408-1.989-.774-2.973-1.128a43.254,43.254,0,0,1-4.207-1.682l-6.047,3.172a2.485,2.485,0,0,1-.993,1.389,5.358,5.358,0,0,1-1.131.606,4.7,4.7,0,0,1-1.81.361,4.915,4.915,0,0,1-.506-.026c-5.53,2.9-9.774,5.118-13.763,7.2l-4.591,2.393c-2.655,1.382-5.328,2.783-7.914,4.137-6.391,3.347-13,6.808-19.549,10.117l-.678.341a82.578,82.578,0,0,1-10.122,4.416A17.975,17.975,0,0,0,35.307,162l.018.206c.008.086.017.171.026.262v.01a8.137,8.137,0,0,1,.054,1.645,2.068,2.068,0,0,1-.646,1.4,1.174,1.174,0,0,1-.771.289.911.911,0,0,1-.845-.5,3.173,3.173,0,0,1-.257-1.608,13.888,13.888,0,0,1,.247-1.769c.05-.271.1-.527.133-.765a11.629,11.629,0,0,1,.26-1.322,36.044,36.044,0,0,1-4.349,1.02,26.946,26.946,0,0,1-4.395.378,22.185,22.185,0,0,1-3.585-.286,12.525,12.525,0,0,1-2.841-.823,14.143,14.143,0,0,1-2.53-1.4,18.013,18.013,0,0,1-2.248-1.857,24.47,24.47,0,0,1-1.994-2.19,28.424,28.424,0,0,1-3.375-5.259,28.789,28.789,0,0,1-2.149-5.868,40.394,40.394,0,0,1-1.037-7.039c-.16-2.39-.17-4.836-.157-7.123.016-2.808.08-5.29.2-7.588.137-2.715.344-5.188.635-7.562a8.193,8.193,0,0,0-1.819-.258c-.1,0-.191,0-.282.009a1.46,1.46,0,0,1-.6.533,1.76,1.76,0,0,1-.773.176,1.792,1.792,0,0,1-.21-.012.949.949,0,0,0-.267.9c.12.469.6.961,1.438,1.461a10.729,10.729,0,0,0,1.844.862.38.38,0,0,1,.241.427.308.308,0,0,1-.317.269H4.937l-.263-.013c-1.636-.087-3.279-.372-4.217-1.856a2.851,2.851,0,0,1-.437-1.881,3.058,3.058,0,0,1,.81-1.715A114.806,114.806,0,0,1,3.764,98.232l.008-.031c.135-.554.274-1.128.41-1.691C5.39,91.5,6.793,86.228,8.471,80.4L9.16,78c1.165-4.034,2.431-8.347,3.8-12.556,1.5-4.618,2.967-8.644,4.486-12.306.938-2.262,1.835-4.2,2.743-5.923a41.939,41.939,0,0,1,3.444-5.537,38.975,38.975,0,0,1,3.965-4.551,40.673,40.673,0,0,1,4.614-3.892,54.915,54.915,0,0,1,9.852-5.556c3.4-1.527,6.936-2.83,10.556-4.14l.317-.114c3.524-1.275,7.288-2.654,10.946-4.1,1.656-.657,3.3-1.416,4.9-2.151,1.489-.687,3.028-1.4,4.569-2.02-.105-.191-.206-.383-.3-.571l-.059.05h0l-.029.021a.709.709,0,0,1-.407.12.983.983,0,0,1-.65-.257,1.3,1.3,0,0,1-.465-1.1A2.412,2.412,0,0,1,71.9,12.3l.065-.093c.465-.651.9-1.341,1.317-2.008.123-.2.263-.419.4-.632l.352-.553a22.989,22.989,0,0,1,3.195-4.187,6.911,6.911,0,0,1,1.9-1.3.066.066,0,0,1,.01-.064.687.687,0,0,1,.466-.217.173.173,0,0,1,.117.034,11.132,11.132,0,0,1,3.847-.582c1.073,0,2.16.092,3.1.179l.445-1.414A2.379,2.379,0,0,1,87.951.35,1.964,1.964,0,0,1,89.074,0a2.06,2.06,0,0,1,1.984,1.512,2.538,2.538,0,0,1,.058,1.053,14.2,14.2,0,0,1-1.872,4.644A11.416,11.416,0,0,1,86.9,10.289c1.746,1.629,3.569,3.208,5.418,4.69a66.851,66.851,0,0,0,6.366,4.5c.6.373,1.21.738,1.8,1.091a42.747,42.747,0,0,1,3.972,2.567,15.472,15.472,0,0,1,2.353,2.144,9.09,9.09,0,0,1,1.671,2.692,7.553,7.553,0,0,1,.473,3.25,14.839,14.839,0,0,1-.616,3.249l-.071.242c-.074.25-.153.5-.236.765-.612,1.945-1.305,4.15.028,5.914a10.877,10.877,0,0,0,2.043,1.9c.269.211.547.429.81.649a22.256,22.256,0,0,1,2.4,2.354,19.461,19.461,0,0,1,3.748,6.222l.074.21a13.705,13.705,0,0,1,.759,3.291,6.256,6.256,0,0,1-.49,3.263.611.611,0,0,1-.575.35.763.763,0,0,1-.739-.522,13.94,13.94,0,0,1-.351-2.1,16.661,16.661,0,0,0-.271-1.784,14.69,14.69,0,0,0-1.468-3.81,20.637,20.637,0,0,0-5.047-5.99l-.612-.5a13.68,13.68,0,0,1-2.166-2.108,5.8,5.8,0,0,1-1.214-2.75,12.378,12.378,0,0,1,.793-5.393v0c.13-.431.265-.876.383-1.313a7.466,7.466,0,0,0,.1-4.371,18.356,18.356,0,0,1-1.407,1.9c-.17.21-.33.408-.483.6-.917,1.175-1.852,2.358-2.756,3.5l-.122.155-.679.86c-1.348,1.709-2.5,3.252-3.535,4.717-.545.775-1.066,1.53-1.5,2.167-.2.3-.458.6-.7.892v0c-.205.245-.417.5-.6.75a.97.97,0,0,1-.088.882,1.641,1.641,0,0,1-1.3.784c-.807,0-1.743-.732-2.784-2.177a26.34,26.34,0,0,1-1.906-3.214l-.045-.087-.017-.032c-.815-1.564-1.537-3.2-2.236-4.788-.707-1.6-1.438-3.26-2.264-4.841a75.71,75.71,0,0,0-5.8-9.406c-.5-.682-1.021-1.358-1.529-2.011-.834-1.072-1.7-2.181-2.439-3.336A24.941,24.941,0,0,1,69.295,19.6c-1.76.972-3.658,1.838-5.183,2.534h0c-2.908,1.326-5.951,2.482-8.895,3.6l-.006,0c-.841.319-1.711.65-2.564.979l-1.133.44c-3.73,1.456-6.834,2.735-9.856,4.247a46.134,46.134,0,0,0-9.019,5.748,33.9,33.9,0,0,0-4.374,4.407,41.148,41.148,0,0,0-3.54,5.028A54.258,54.258,0,0,0,21.86,52.06c-.8,1.762-1.571,3.643-2.341,5.749C17.987,62,16.5,66.435,14.985,71.379c-1.252,4.076-2.514,8.444-3.972,13.746-1.3,4.737-2.537,9.5-3.67,14.151-.347,1.424-.678,2.876-1,4.281v0c-.619,2.708-1.258,5.509-2.032,8.226.1,0,.21-.005.312-.005a21.509,21.509,0,0,1,4.467.658c.845.185,1.642.359,2.358.453,5,.654,9.5,1.455,13.786,2.449,2.319.538,4.593,1.142,6.76,1.793,2.274.684,4.507,1.443,6.637,2.258a1.85,1.85,0,0,1,1.073,1.012,2.091,2.091,0,0,1,.086,1.358l.746-.211.028-.008,1.1-.31c-.556-.853-.444-2.248-.353-3.37.021-.254.04-.495.05-.71l0-.08c.036-1.017.123-2.05.206-3.049v-.005c.043-.52.088-1.057.125-1.584.22-3.119.493-5.995.836-8.79l.092-.732c.173-1.356.329-2.737.48-4.072v0c.2-1.8.415-3.665.67-5.49l.052-.364c-.185-.707-.407-1.452-.72-2.416-.484-1.489-1.118-2.942-1.732-4.347-.264-.6-.536-1.229-.795-1.851a.19.19,0,0,1,.012-.185.278.278,0,0,1,.229-.111.246.246,0,0,1,.166.059,14.566,14.566,0,0,1,1.961,2.186,20.6,20.6,0,0,1,1.567,2.506c.007-.035.014-.072.02-.106s.017-.092.027-.139l.106-.52a8.935,8.935,0,0,1,1.355-3.63.221.221,0,0,1,.173-.091.173.173,0,0,1,.152.091,5.941,5.941,0,0,1,.683,1.947,19.443,19.443,0,0,1,.238,2.081c.007.088.014.174.02.26.146,1.83.14,3.667.123,4.889-.036,2.543-.188,5.13-.336,7.633-.035.587-.074,1.253-.111,1.9-.16,2.851-.475,5.887-.962,9.282l-.084.579c-.058.4-.115.8-.17,1.193v0c-.148,1.061-.3,2.156-.509,3.22l-.081.4c-.047.225-.089.477-.133.745a10.783,10.783,0,0,1-.417,1.846c7.473-2.084,15.38-4.24,23.5-6.407,4.028-1.075,8.125-2.156,12.087-3.2l4.939-1.3A6.389,6.389,0,0,1,86.272,108a6.139,6.139,0,0,1,1.631-1.154,4.216,4.216,0,0,1,1.809-.43A3.764,3.764,0,0,1,91.7,107a.254.254,0,0,1,.118.223.226.226,0,0,1-.118.2c-.421.23-.76.422-1.066.6l3.408-.923c.751-.2,1.519-.426,2.261-.641h0c1.785-.518,3.63-1.053,5.468-1.392a117.76,117.76,0,0,1,14.73-5.681l.3-.1.6-.2,1.02-.35a48.5,48.5,0,0,1,6.925-2.011,6.89,6.89,0,0,1,1.236-.114,4.965,4.965,0,0,1,2.273.5,3.17,3.17,0,0,1,1.538,1.7,31.526,31.526,0,0,1,2.841,2.19c.462.388.918.8,1.359,1.2l.006.005c.182.164.37.334.556.5l.118.1.116.1,0,0a2.209,2.209,0,0,1,.943,1.373.808.808,0,0,1-.166.636.513.513,0,0,1-.4.194.575.575,0,0,1-.062,0c-1.122-.12-2.068-1.173-2.9-2.1h0c-.209-.233-.406-.452-.6-.647-.831-.849-1.514-1.574-2.149-2.354a1,1,0,0,1-.477.124.76.76,0,0,1-.7-.421,2.279,2.279,0,0,0-1-1,2.975,2.975,0,0,0-1.343-.281,11.806,11.806,0,0,0-3.505.8h0c-.34.115-.661.224-.947.309l-2.806.831c-1.163.345-2.693.8-4.206,1.259-1.411.429-2.84.882-4.222,1.321-2.4.761-4.877,1.548-7.338,2.229a.809.809,0,0,1,.193.727.852.852,0,0,1-.553.593,51.877,51.877,0,0,1-6.908,1.985h0c-.864.206-1.757.418-2.62.642-1.976.513-3.988,1.038-5.978,1.561a4.865,4.865,0,0,0-.691,1.908,14.272,14.272,0,0,0,.123,4.213,37.921,37.921,0,0,0,.944,4.147l.107.387a20.285,20.285,0,0,0,1.17,3.264,6.972,6.972,0,0,0,2.078,2.688,3.166,3.166,0,0,0,1.561.595c3.576-1.841,7.075-3.642,10.557-5.429a.982.982,0,0,1,.451-.115,1.028,1.028,0,0,1,.95.772,23.011,23.011,0,0,0,3.608-.907,16.078,16.078,0,0,0,3.113-1.579c.653-.394,1.327-.8,2.039-1.141a6.188,6.188,0,0,1,2.726-.612,9.737,9.737,0,0,1,3.409.7,33.2,33.2,0,0,1,3.255,1.5l.636.32.709.349a8.969,8.969,0,0,0,3.4,1.067,1.437,1.437,0,0,0,1.511-.942,2.169,2.169,0,0,0,.033-1.333,3.874,3.874,0,0,0-.649-1.264,7.7,7.7,0,0,0-2.077-1.866,12.634,12.634,0,0,0-2.492-1.139c-.919-.316-1.852-.554-2.644-.744-1.028-.247-2.054-.444-3.049-.584-.371-.052-.751-.086-1.12-.118a10.156,10.156,0,0,1-2.362-.4.692.692,0,0,1-.449-.685.55.55,0,0,1,.449-.53,6.778,6.778,0,0,1,1.5-.154,17.872,17.872,0,0,1,4.079.627l.94.232a22.64,22.64,0,0,1,5.289,1.889,10.856,10.856,0,0,1,1.786,1.2,8.2,8.2,0,0,1,1.507,1.619,2.068,2.068,0,0,1,1.475-.556,4.177,4.177,0,0,1,1.069.159l.505.14a6.207,6.207,0,0,0,1.663.3,3.371,3.371,0,0,0,.66-.065c.1-.568.217-1.175.336-1.773,1.183-5.941,2.471-11.779,3.826-17.353,1.2-4.915,2.51-9.9,3.9-14.812,1.38-4.861,2.88-9.791,4.456-14.655l.316-.972c.162-.5.32-1.012.473-1.511l0-.005a25.2,25.2,0,0,1,2.008-5.171,7.174,7.174,0,0,1,2.121-2.32,9.374,9.374,0,0,1,2.872-1.313,56.079,56.079,0,0,1,5.492-1.141h.008c.609-.105,1.238-.214,1.851-.328.326-.06.664-.121.963-.174l.673-.121a17.976,17.976,0,0,1-.87-1.91c-.085-.209-.165-.405-.245-.591l-.054-.126c-.726-1.654-1.365-3.335-1.841-4.615l-.432-1.167a58.38,58.38,0,0,0-3.584-8.205A21.139,21.139,0,0,0,155,36.536a22.381,22.381,0,0,0-3.448-3.115,57.629,57.629,0,0,0-7.751-4.532c-1.493-.771-3.037-1.569-4.513-2.429a33.72,33.72,0,0,1-4.251-2.883.177.177,0,0,1-.064-.2.261.261,0,0,1,.236-.166.212.212,0,0,1,.1.023,72.193,72.193,0,0,0,7.4,3.051h0c1.061.392,2.159.8,3.225,1.217l.7.276a35.069,35.069,0,0,1,8.068,4.116,22.4,22.4,0,0,1,3.629,3.368,23.1,23.1,0,0,1,2.8,4.085,51.369,51.369,0,0,1,3.088,7.563v0c.2.571.4,1.161.609,1.735l.3.831c.428,1.187.9,2.456,1.443,3.7.17.387.4.79.634,1.218a11.341,11.341,0,0,1,.932,1.942l.2-.034h.008c.9-.155,1.821-.316,2.732-.468,5.275-.881,10.641-1.682,15.949-2.382s10.693-1.316,16.02-1.833,10.732-.949,16.074-1.283,10.76-.581,16.109-.732h.036a1.053,1.053,0,0,1,.83.378,1.408,1.408,0,0,1,.286,1.134c-1.162,6.874-2.268,13.865-3.338,20.625l0,.014c-.83,5.247-1.689,10.674-2.567,16-.9,5.44-1.8,10.814-2.69,15.972-.2,1.153-.413,2.321-.621,3.449-.279,1.517-.568,3.085-.82,4.631-.076.466-.148.94-.219,1.4l0,.017a41.046,41.046,0,0,1-1,5.091,12.293,12.293,0,0,1-2.763,5.208,8.069,8.069,0,0,1-2.6,1.8,12.827,12.827,0,0,1-3.048.891c-3.672.632-7.467,1.01-11.137,1.376-1.619.161-3.293.328-4.931.515l-28.427,3.234c.2,1.832.318,3.677.355,5.64.034,1.792,0,3.648-.1,5.673l-.109,2.085c-.085,1.6-.188,3.312-.436,5.017a9.445,9.445,0,0,1-.916,2.9,11.479,11.479,0,0,1-1.742,2.5,31.892,31.892,0,0,1-4.376,3.815,22.252,22.252,0,0,1-5.071,3.133l-.241.1a24,24,0,0,1-2.688.873,13.114,13.114,0,0,1-3.2.466,6.516,6.516,0,0,1-1.033-.077c.056.282.124.573.189.855a6.548,6.548,0,0,1,.166,3.618,1.1,1.1,0,0,1-.393.525A1.032,1.032,0,0,1,152.02,168.654Zm18.811-37.163-2.978.339c-3.493.4-6.931.774-9.834,1.091l-7.121.774c-.009.2-.025.4-.041.583v0c-.016.19-.031.369-.035.524-.048,1.642-.084,3.309-.114,4.743-.065,3.152.007,6.35.215,9.5.235,3.557.515,6.472.883,9.175l.085.608.049.32a1.4,1.4,0,0,1,.945.523,1.213,1.213,0,0,0,.962.314,9.04,9.04,0,0,0,2.673-.6,17.507,17.507,0,0,0,3.937-2.185,24.731,24.731,0,0,0,3.287-2.8l.842-.832a10.744,10.744,0,0,0,2.188-2.765,11.963,11.963,0,0,0,.889-3.877c.032-.274.065-.557.1-.829.22-1.663.5-3.472.866-5.693l2.2-8.923ZM6.07,114.337l-.013,3.094c-.016,4.209-.012,8.691.215,13.141l.042.812c.255,4.764.65,9.8,2.4,14.449a27.6,27.6,0,0,0,2.717,5.368,24.765,24.765,0,0,0,3.861,4.607,14.677,14.677,0,0,0,2.341,1.807,10.232,10.232,0,0,0,2.707,1.171,15.19,15.19,0,0,0,3.974.478c.529,0,1.07-.02,1.654-.06,7.817-.545,14.894-4.3,21.738-7.929h0c1.035-.549,2.106-1.117,3.153-1.659,12.263-6.349,25.335-13.114,38.474-19.884a6.3,6.3,0,0,1-.971-.817,14.05,14.05,0,0,1-3.225-6.566,34.656,34.656,0,0,1-1.058-7.785l.288-3.025-.309.081c-3.2.849-6.437,1.718-9.571,2.558-7.895,2.116-16.058,4.3-24.115,6.344-3.211.813-6.484,1.605-9.648,2.371-2.327.563-4.734,1.146-7.1,1.732l-.9.226c-4.325,1.093-8.831,2.429-12.223,5.642a.13.13,0,0,1-.09.038.142.142,0,0,1-.125-.086.125.125,0,0,1,.027-.14,19.645,19.645,0,0,1,6.38-4.378,53.7,53.7,0,0,1,7.376-2.543c.5-.144,1.018-.289,1.515-.429l.021-.006,1.215-.344a161.361,161.361,0,0,0-20.6-5.988c-.895-.19-1.809-.359-2.694-.521h0c-.9-.165-1.83-.336-2.739-.531-.81-.173-1.62-.4-2.4-.619-.433-.121-.881-.246-1.326-.362ZM233.8,52.03c-5.633.17-11.312.442-16.88.809-5.623.37-11.289.847-16.84,1.417-10.376,1.065-20.852,2.5-31.137,4.271-2.146.369-4.321.759-6.463,1.159l-1.291.243c-.481.091-.976.169-1.5.251-.9.141-1.822.286-2.712.508a9.054,9.054,0,0,0-2.485.967,5.223,5.223,0,0,0-1.943,2.209A17.647,17.647,0,0,0,151.5,66.7c-.079.259-.161.526-.245.785-.786,2.442-1.563,4.928-2.31,7.389-3.013,9.929-5.745,19.9-8.119,29.65-.847,3.479-1.641,7.03-2.408,10.465v0c-.322,1.443-.655,2.934-.988,4.4-.882,3.886-1.916,8.056-3.255,13.125a1.286,1.286,0,0,1,.527-.239c4.731-1.007,9.621-1.551,14.35-2.078.99-.11,2.013-.224,3.023-.341l.562-.065c5.705-.671,11.838-1.388,18.03-2.084l39.806-4.477c.665-.075,1.356-.132,2.023-.188a28.28,28.28,0,0,0,5.124-.742,6.1,6.1,0,0,0,3.936-3.541,21.525,21.525,0,0,0,1.511-5.331l.02-.1c1.175-6.25,2.224-12.638,3.239-18.816v0c.681-4.145,1.385-8.431,2.122-12.645ZM132.7,131.994h.006a1.539,1.539,0,0,1,.9.267l1.487-11.886a8.861,8.861,0,0,1-2.5-.759,6.919,6.919,0,0,0-2.213-.662c-.043,0-.085,0-.125.005a4.3,4.3,0,0,1,.539,3.469,2.648,2.648,0,0,1-2.827,2.051,8.174,8.174,0,0,1-2.551-.491,17.962,17.962,0,0,1-2.225-.94c-.394-.2-.791-.405-1.175-.607a16.64,16.64,0,0,0-4.243-1.754,5.779,5.779,0,0,0-1.185-.128A8.652,8.652,0,0,0,112.411,122l-.207.113a16.423,16.423,0,0,1-4.925,1.74,9.752,9.752,0,0,1-1.748.153c-.291,0-.586-.011-.9-.035a1.072,1.072,0,0,1-.178.117l-.458.241a25.757,25.757,0,0,1,6.112,1.32c2.08.631,4.142,1.407,5.912,2.086l1.92.738a72.05,72.05,0,0,0,7.2,2.437,28.872,28.872,0,0,0,7.493,1.083ZM79.791,4.777a5.311,5.311,0,0,0-1.206.952,19.675,19.675,0,0,0-2.741,4.137l-.047.086c-.2.36-.391.722-.579,1.072l0,.005c-.23.428-.467.871-.706,1.3-.207.374-.42.743-.583,1.022a4.1,4.1,0,0,1-.277.372h0c-.08.1-.162.2-.219.285.139.194.29.4.462.62.012.016.189.211.482.533l.012.013c1.2,1.321,4.012,4.414,5.161,5.82,1.124,1.375,2.18,2.783,3.139,4.185,1,1.455,1.92,2.953,2.748,4.45.982,1.777,1.839,3.647,2.668,5.455.571,1.245,1.16,2.531,1.787,3.779a23.322,23.322,0,0,0,2.72,4.376c.025.031.051.061.077.09l0,0,0,0,.049.056a10.579,10.579,0,0,1,1.668-2.588c.127-.159.246-.31.345-.44L94.8,40.3c1.068-1.44,2.255-2.932,3.736-4.7,1.142-1.36,2.357-2.743,3.612-4.112l.464-.5c.156-.169.317-.349.486-.539a10.941,10.941,0,0,1,2.723-2.441,6.078,6.078,0,0,0-.47-.713,16.059,16.059,0,0,0-4.489-3.666L99.8,22.983c-3.167-1.93-4.833-3.056-5.931-3.822a53.881,53.881,0,0,1-5.533-4.372,46.794,46.794,0,0,1-5.218-5.411l-.549-.694ZM86.5,3.565c-.441.037-.9.064-1.342.09a15.937,15.937,0,0,0-4.311.644c.919.869,1.824,1.792,2.7,2.685.6.608,1.213,1.237,1.826,1.841a22.356,22.356,0,0,1,.489-2.35c.051-.206.1-.419.153-.628Zm-.483,153.394a.973.973,0,0,1-.8-.488.919.919,0,0,1-.041-.92,132.445,132.445,0,0,1,7.5-12.243l.349-.519c1.2-1.788,2.444-3.638,3.679-5.45.667-.978,1.214-1.761,1.721-2.464l.354-.486,1.916-2.1a.173.173,0,0,1,.083-.021.169.169,0,0,1,.167.165,5.431,5.431,0,0,1-.728,2.448c-.057.119-.121.255-.179.381l-.043.094c-.442.983-.961,2.041-1.587,3.235-1.139,2.173-2.309,4.289-3.476,6.291a74.322,74.322,0,0,1-8.312,11.777A.8.8,0,0,1,86.013,156.959Zm48.442-42.012a4.32,4.32,0,0,1-3.049-1.622l-.721-.753a7.677,7.677,0,0,0-1.576-1.339,3.9,3.9,0,0,0-2.067-.545c-.063,0-.128,0-.193,0a30.557,30.557,0,0,0-3.661.434h0c-.692.11-1.407.225-2.107.307-2.084.246-4.274.47-6.51.663h-.008a.079.079,0,0,1-.077-.075.087.087,0,0,1,.062-.1l2.436-.606,9.47-1.91a8.087,8.087,0,0,1,.975-.063,4.833,4.833,0,0,1,3.181,1.07,12.5,12.5,0,0,1,1.233,1.216,10.524,10.524,0,0,0,1.464,1.393,3.494,3.494,0,0,0,1.878.708.569.569,0,0,1,.537.51.523.523,0,0,1-.39.577A3.079,3.079,0,0,1,134.455,114.947Zm1.883-5.926a.37.37,0,0,1-.086-.01,7.688,7.688,0,0,1-2.138-.9,23.218,23.218,0,0,1-1.916-1.322c-.474-.351-.964-.714-1.465-1.041a6.794,6.794,0,0,0-3.932-1.053c-.761,0-1.533.069-2.35.142l-.144.013c-2.343.209-4.592.493-6.683.845-.721.121-1.456.269-2.166.413a36.35,36.35,0,0,1-4.1.666v0a.274.274,0,0,1-.254-.218.227.227,0,0,1,.122-.266,27.959,27.959,0,0,1,6.769-2.023l.151-.032,6.83-1.061.252-.025c.791-.077,1.395-.111,1.959-.111a9.445,9.445,0,0,1,2.169.228,7.169,7.169,0,0,1,2.1.852l.38.23a14.47,14.47,0,0,1,4.845,4.12.337.337,0,0,1,.011.352A.407.407,0,0,1,136.338,109.021ZM192.9,99.348a15.372,15.372,0,0,1-4.143-.492,7.85,7.85,0,0,1-1.854-.775,5.407,5.407,0,0,1-1.482-1.269,2.9,2.9,0,0,1-.727-2.494,3.633,3.633,0,0,1,1.176-1.832,8.671,8.671,0,0,1,2.046-1.343,2.237,2.237,0,0,1-.638-.966A1.818,1.818,0,0,1,187.3,89a4.49,4.49,0,0,1,2.028-2.04A8.145,8.145,0,0,0,190.62,86a6.41,6.41,0,0,0,1.449-2.127,4.487,4.487,0,0,0,.278-2.525l-.019-.1a.91.91,0,0,1,.164-.776.9.9,0,0,1,.695-.323.949.949,0,0,1,.772.412l.124.171c.135.185.275.373.422.571l0,.006a22.109,22.109,0,0,1,1.769,2.635,5.629,5.629,0,0,1,.8,2.888,3.232,3.232,0,0,1,1.6.484,2.718,2.718,0,0,1,1.092,1.216,3.363,3.363,0,0,1,.223,1.581A4.71,4.71,0,0,1,202.72,91.5a3.018,3.018,0,0,1,.843,1.847,3.352,3.352,0,0,1-.473,1.982c-1.78,3.032-5.8,3.766-8.04,3.934l-.1.008C194.2,99.323,193.535,99.348,192.9,99.348Zm-4.28-7.736c-.59.6-1.164,1.227-1.718,1.83a1.867,1.867,0,0,0-.576,1.487,2.279,2.279,0,0,0,1.1,1.553,6.591,6.591,0,0,0,2.537.982,15.2,15.2,0,0,0,2.847.23h0c.588,0,1.16-.021,1.592-.04a14.041,14.041,0,0,0,3.349-.516,8.066,8.066,0,0,0,2.985-1.555l.075-.066a4.292,4.292,0,0,0,.823-.97,1.785,1.785,0,0,0,.3-1.093,1.327,1.327,0,0,0-.763-1.006,3.326,3.326,0,0,0-1.127-.332,5.226,5.226,0,0,1-.587-.12,3.315,3.315,0,0,1-2.313,1.927.889.889,0,0,1-.134.01.841.841,0,0,1-.8-.59.684.684,0,0,1,.311-.791l.164-.1a4.123,4.123,0,0,0,1.193-1.111,2.611,2.611,0,0,0,.489-1.554,1.441,1.441,0,0,0-.413-.905,1.26,1.26,0,0,0-.882-.445.818.818,0,0,0-.6.27l-.034.037a.709.709,0,0,1-.538.255.894.894,0,0,1-.738-.443.769.769,0,0,1-.032-.771l.02-.035L194,83.468a7.088,7.088,0,0,1-.85,2.077,8.147,8.147,0,0,1-1.46,1.776,9.008,9.008,0,0,1-1.431,1.074l-.062.036c-.067.038-.152.082-.234.125-.526.275-1.32.689-1.247,1.177.055.366.75.8,1.047.973a3.778,3.778,0,0,0,1.351.533.129.129,0,0,1,.119.107.1.1,0,0,1-.058.12,3.746,3.746,0,0,1-1.52.39A2.363,2.363,0,0,1,188.62,91.612ZM55.381,79.072a.662.662,0,0,1-.7-.571c-.426-2.745-.851-5.533-1.261-8.229v0c-.485-3.187-.987-6.483-1.494-9.722-.361-2.3-.774-4.641-1.173-6.9v0c-.121-.686-.247-1.394-.37-2.1l-1.324-8.663a.162.162,0,0,1,.047-.119.193.193,0,0,1,.135-.055.166.166,0,0,1,.148.085,32.53,32.53,0,0,1,2.721,7.548c.08.295.162.6.244.9.716,2.607,1.364,5.425,2.038,8.868.593,3.027,1.049,6.072,1.355,9.05.311,3.025.479,6.1.5,9.137a.716.716,0,0,1-.212.52A.938.938,0,0,1,55.381,79.072ZM65.1,70.46a1.022,1.022,0,0,1-.769-.361.906.906,0,0,1-.188-.773L63.34,47.3a.247.247,0,0,1,.03-.229.279.279,0,0,1,.226-.1.292.292,0,0,1,.278.187,41.163,41.163,0,0,1,1.8,5.484,39.046,39.046,0,0,1,.993,5.7,33.9,33.9,0,0,1-.774,11.475A.794.794,0,0,1,65.1,70.46Zm44.2-20.236a.44.44,0,0,1-.359-.169,4.985,4.985,0,0,1-.314-.472,2.526,2.526,0,0,0-.668-.814,4.009,4.009,0,0,0-1.557-.541c-.241-.048-.49-.1-.722-.166a5.582,5.582,0,0,1-2.518-1.5l-2.472-5.578a.214.214,0,0,1,.054-.164.241.241,0,0,1,.176-.07.272.272,0,0,1,.224.11,16.868,16.868,0,0,1,1.09,1.858,14.164,14.164,0,0,0,1.293,2.126,4.823,4.823,0,0,0,1.964,1.536,8.278,8.278,0,0,0,1.425.4,5.084,5.084,0,0,1,2.19.853,2.644,2.644,0,0,1,.826,1.044,1.339,1.339,0,0,1-.105,1.262A.647.647,0,0,1,109.292,50.224Zm4.166-4.247a.63.63,0,0,1-.453-.183,3.015,3.015,0,0,1-.411-3.034,13.378,13.378,0,0,1,1.376-3,17.437,17.437,0,0,1,3.978-4.305c.286-.247.581-.5.876-.762a21.531,21.531,0,0,0,4.388-6.292c.329-.622.659-1.262.979-1.881l.007-.013,0-.006c.391-.758.8-1.541,1.2-2.305a5.21,5.21,0,0,1-1.177-2.568c-.04-.157-.079-.3-.118-.446l-.024-.085a34.185,34.185,0,0,1-1-4.664,25.573,25.573,0,0,1-.243-4.523l.016-.387.744-2.777a.3.3,0,0,1,.134-.034.292.292,0,0,1,.233.13.3.3,0,0,1-.045.463,11.174,11.174,0,0,1,.5,1.671c.138.611.288,1.234.459,1.906.161.636.315,1.285.464,1.912l0,.008v.005c.149.63.3,1.282.466,1.92.326,1.285.734,2.637,1.21,4.019.027.079.059.165.1.262l.052.134.013-.02a.138.138,0,0,1,.117-.071.148.148,0,0,1,.109.052.159.159,0,0,1,.037.129c-.013.086-.029.172-.044.256V21.5c-.009.052-.019.105-.028.158l.048.126a2.344,2.344,0,0,1-.045,2.358,1.113,1.113,0,0,1-.711.469,40.72,40.72,0,0,1-1.62,4.34l-.177.409a24.355,24.355,0,0,1-3.256,5.794,21.333,21.333,0,0,1-2.214,2.228,16.126,16.126,0,0,0-2.808,3.045,12.726,12.726,0,0,0-1.417,3.076l-.133.415a3.31,3.31,0,0,1-1.266,1.975A.586.586,0,0,1,113.459,45.978Zm12.228-2.109a1.318,1.318,0,0,1-.845-.291l-1.62-1.346c-.272-.226-.544-.454-.808-.676-.246-.207-.47-.4-.685-.586l-.338-.3c-.039-.035-.11-.108-.2-.2a3.429,3.429,0,0,0-.8-.7.275.275,0,0,0-.043,0c-.431,0-1.294.9-1.757,1.383h0l-.16.165-.048.048a19.8,19.8,0,0,0-1.967,2.26.154.154,0,0,1-.123.066.145.145,0,0,1-.121-.066.147.147,0,0,1,0-.145,20.194,20.194,0,0,1,1.915-3.3l.151-.206c.084-.113.173-.242.267-.377l0-.006c.464-.669,1.042-1.5,1.767-1.664a1.436,1.436,0,0,1,.315-.035,4.018,4.018,0,0,1,2.218,1.156c.135.109.262.213.383.305l.049.037c.4.3.8.611,1.1.845a14.341,14.341,0,0,1,.224-3,8.462,8.462,0,0,1,1.035-2.794,12.392,12.392,0,0,1,1.877-2.243c.3-.305.61-.621.9-.946a12.648,12.648,0,0,0,1.434-2.114,15.52,15.52,0,0,1,1.111-1.725.718.718,0,0,1,.473-.269c.028-.765.123-1.544.215-2.3v-.011c.026-.21.052-.427.077-.64l.032-.291c.016-.152.035-.305.055-.468a4.971,4.971,0,0,0-.192-2.868,6.053,6.053,0,0,0-1.911-1.84h0c-.186-.134-.361-.26-.527-.387l-.678-.526-1.957-1.87a.247.247,0,0,1-.024-.268.371.371,0,0,1,.315-.192.288.288,0,0,1,.059.006,13.124,13.124,0,0,1,3.56,1.553c.18.1.384.214.578.32l.138.075a5.835,5.835,0,0,1,2.61,2.317,7.325,7.325,0,0,1,.46,3.8l-.008.119c-.021.327-.039.663-.056.988v.007a23.056,23.056,0,0,1-.382,3.627,1.07,1.07,0,0,1-.4.657,1.091,1.091,0,0,1-.659.207,1.365,1.365,0,0,1-.4-.061,12.092,12.092,0,0,1-2.937,4.28c-.411.448-.836.91-1.216,1.371a6.588,6.588,0,0,0-1.4,3.591,21.739,21.739,0,0,0,.055,3.939q.018.237.035.47a.979.979,0,0,1-.249.758A1.217,1.217,0,0,1,125.686,43.869Z" transform="translate(0 4.484)"/>
    </g>
  </g>
</svg>
